<?xml version="1.0"?>
<svg version="1.1" xmlns="http://www.w3.org/2000/svg" width="800" height="141" style="border: dashed 2px #aaa"><path fill="#323975" d="M62.43,80.4l-2.25-7.74s-4.23-1.44-10.17-1.44c-9.63,0-15.03,7.02-15.03,22.05c0,14.58,5.67,20.88,15.3,20.88c4.68,0,9.9-1.62,9.9-1.62l0-11.34l-6.75-2.07l0-7.38l25.92-0.45l0,7.83l-6.12,2.07l0,18.36s-9.27,6.03-24.48,6.03c-18.27,0-28.8-10.98-28.8-31.86c0-21.15,11.88-33.75,30.33-33.75c10.89,0,20.97,4.23,20.97,4.23l-0.45,16.2l-8.37,0z M110.8059,75.9l0.81,6.21s6.48-7.11,12.51-7.11c4.95,0,8.37,1.62,8.37,1.62l-0.72,17.28l-8.1,0l-1.35-7.65c-5.22,0-9.72,5.04-9.72,5.04l0,23.76l9,2.25l0,7.2l-29.7,0l0-7.2l7.2-2.25l0-29.25l-7.2-2.25l0-7.2z M166.6518,75c14.58,0,22.68,8.82,22.68,24.3c0,16.2-9.45,26.1-24.03,26.1c-14.67,0-22.95-7.65-22.95-24.75c0-16.2,9.63-25.65,24.3-25.65z M166.2018,85.8c-6.57,0-9.9,3.6-9.9,14.4c0,9.9,2.88,14.4,9.45,14.4c6.48,0,9.63-4.05,9.63-14.85c0-9.18-2.7-13.95-9.18-13.95z M200.0877,83.55l0-7.2l20.7-0.45l0,31.05c0,4.95,1.44,7.2,5.49,7.2c5.85,0,10.17-4.86,10.17-4.86l0-23.49l-7.2-2.25l0-7.2l20.7-0.45l0,39.15l7.2,1.8l0,7.02l-18.99,0.63l-0.9-6.3s-7.2,7.2-15.75,7.2c-9,0-14.22-6.03-14.22-16.11l0-23.49z M267.0036,76.35l19.17-0.45l0.81,5.04s6.12-5.94,13.32-5.94c12.51,0,18.72,9.27,18.72,23.85c0,16.65-7.92,26.55-23.67,26.55c-2.61,0-5.31-0.36-7.65-0.9l0,11.43l8.55,2.07l0,7.2l-29.07,0l0-7.2l7.02-2.07l0-50.13l-7.2-2.25l0-7.2z M287.7036,90.75l0,22.95c1.44,0.63,3.6,1.35,7.02,1.35c7.74,0,10.35-5.4,10.35-14.58c0-9.09-2.43-14.67-9-14.67c-5.85,0-8.37,4.95-8.37,4.95z M332.0295,124.5l0-7.65l6.75-2.7l0-42.3l-6.75-2.7l0-7.65l23.22-0.45l13.5,29.97l14.13-29.52l21.6-0.45l0,8.1l-6.48,2.7l0,42.3l6.75,2.7l0,7.65l-26.82,0l0-7.65l7.02-2.7l0-33.84l-2.43,5.94l-10.17,21.15l-9.72,0.45l-10.35-21.33l-1.53-4.68l0,32.31l6.93,2.7l0,7.65l-25.65,0z M447.9954,124.5l-1.62-5.85s-6.93,6.75-14.58,6.75c-8.73,0-14.04-5.13-14.04-14.13c0-10.62,8.01-14.85,21.69-14.85l6.3,0l0-4.95c0-4.59-2.43-6.57-6.93-6.57c-4.59,0-7.92,1.35-7.92,1.35l-1.35,5.67l-8.1,0l-0.63-13.32s10.89-3.6,19.53-3.6c13.68,0,18.9,4.77,18.9,17.82l0,22.23l6.75,1.62l0,7.2z M445.7454,104.07l-5.13,0c-7.02,0-9.81,1.8-9.81,5.85c0,3.42,1.89,5.4,5.31,5.4c4.77,0,9.63-5.22,9.63-5.22l0-6.03z M483.2313,61.05c0-5.13,3.69-8.1,7.74-8.1c4.68,0,7.56,2.43,7.56,8.1c0,5.31-3.87,8.19-7.56,8.19c-4.86,0-7.74-2.88-7.74-8.19z M498.3513,115.05l6.3,2.25l0,7.2l-27,0l0-7.2l7.2-2.25l0-29.25l-7.2-2.25l0-7.2l20.7-0.45l0,39.15z M536.1972,115.05l8.1,2.25l0,7.2l-28.89,0l0-7.2l7.2-2.25l0-50.58l-7.2-1.8l0-7.2l20.79-0.72l0,60.3z M574.8531,61.05l9.45,0c11.7,0,19.8,4.95,19.8,15.57c0,7.83-3.69,12.6-10.8,14.85c8.46,2.43,12.87,7.47,12.87,14.4c0,13.23-8.82,18.63-23.4,18.63l-28.62,0l0-7.65l6.75-2.7l0-42.3l-6.75-2.7l0-7.65z M574.8531,86.97l5.22,0c6.57,0,10.08-2.79,10.08-8.37c0-4.68-3.33-6.75-7.65-6.75l-7.65,0l0,15.12z M574.8531,113.7l7.47,0c6.3,0,9.63-2.88,9.63-7.83c0-6.57-3.78-9.45-11.88-9.45l-5.22,0l0,17.28z M643.929,75c14.58,0,22.68,8.82,22.68,24.3c0,16.2-9.45,26.1-24.03,26.1c-14.67,0-22.95-7.65-22.95-24.75c0-16.2,9.63-25.65,24.3-25.65z M643.479,85.8c-6.57,0-9.9,3.6-9.9,14.4c0,9.9,2.88,14.4,9.45,14.4c6.48,0,9.63-4.05,9.63-14.85c0-9.18-2.7-13.95-9.18-13.95z M727.0449,83.55l-5.58,1.17l-10.35,15.48l10.17,15.3l6.66,1.8l0,7.2l-24.48,0l0-7.2l2.79-0.99l-4.77-7.92l-9.72,16.11l-15.3,0l0-7.2l6.75-1.8l9.9-14.85l-10.89-15.93l-4.86-1.17l0-7.2l23.31-0.45l0,7.65l-2.7,0.54l4.68,7.92l9.36-15.66l15.03-0.45l0,7.65z"/><path fill="#356385" d=""/></svg>
