<?xml version="1.0"?>
<svg version="1.1" xmlns="http://www.w3.org/2000/svg" width="238" height="90" style="border: dashed 2px #aaa"><path fill="#323975" d="M28.702,47.86l-0.65-2.236s-1.222-0.416-2.938-0.416c-2.782,0-4.342,2.028-4.342,6.37c0,4.212,1.638,6.032,4.42,6.032c1.352,0,2.86-0.468,2.86-0.468l0-3.276l-1.95-0.598l0-2.132l7.488-0.13l0,2.262l-1.768,0.598l0,5.304s-2.678,1.742-7.072,1.742c-5.278,0-8.32-3.172-8.32-9.204c0-6.11,3.432-9.75,8.762-9.75c3.146,0,6.058,1.222,6.058,1.222l-0.13,4.68l-2.418,0z M42.67726,46.56l0.234,1.794s1.872-2.054,3.614-2.054c1.43,0,2.418,0.468,2.418,0.468l-0.208,4.992l-2.34,0l-0.39-2.21c-1.508,0-2.808,1.456-2.808,1.456l0,6.864l2.6,0.65l0,2.08l-8.58,0l0-2.08l2.08-0.65l0-8.45l-2.08-0.65l0-2.08z M58.81052,46.3c4.212,0,6.552,2.548,6.552,7.02c0,4.68-2.73,7.54-6.942,7.54c-4.238,0-6.63-2.21-6.63-7.15c0-4.68,2.782-7.41,7.02-7.41z M58.68052,49.42c-1.898,0-2.86,1.04-2.86,4.16c0,2.86,0.832,4.16,2.73,4.16c1.872,0,2.782-1.17,2.782-4.29c0-2.652-0.78-4.03-2.652-4.03z M68.46978,48.77l0-2.08l5.98-0.13l0,8.97c0,1.43,0.416,2.08,1.586,2.08c1.69,0,2.938-1.404,2.938-1.404l0-6.786l-2.08-0.65l0-2.08l5.98-0.13l0,11.31l2.08,0.52l0,2.028l-5.486,0.182l-0.26-1.82s-2.08,2.08-4.55,2.08c-2.6,0-4.108-1.742-4.108-4.654l0-6.786z M87.80104,46.69l5.538-0.13l0.234,1.456s1.768-1.716,3.848-1.716c3.614,0,5.408,2.678,5.408,6.89c0,4.81-2.288,7.67-6.838,7.67c-0.754,0-1.534-0.104-2.21-0.26l0,3.302l2.47,0.598l0,2.08l-8.398,0l0-2.08l2.028-0.598l0-14.482l-2.08-0.65l0-2.08z M93.78104,50.85l0,6.63c0.416,0.182,1.04,0.39,2.028,0.39c2.236,0,2.99-1.56,2.99-4.212c0-2.626-0.702-4.238-2.6-4.238c-1.69,0-2.418,1.43-2.418,1.43z M106.5863,60.6l0-2.21l1.95-0.78l0-12.22l-1.95-0.78l0-2.21l6.708-0.13l3.9,8.658l4.082-8.528l6.24-0.13l0,2.34l-1.872,0.78l0,12.22l1.95,0.78l0,2.21l-7.748,0l0-2.21l2.028-0.78l0-9.776l-0.702,1.716l-2.938,6.11l-2.808,0.13l-2.99-6.162l-0.442-1.352l0,9.334l2.002,0.78l0,2.21l-7.41,0z M140.08756,60.6l-0.468-1.69s-2.002,1.95-4.212,1.95c-2.522,0-4.056-1.482-4.056-4.082c0-3.068,2.314-4.29,6.266-4.29l1.82,0l0-1.43c0-1.326-0.702-1.898-2.002-1.898c-1.326,0-2.288,0.39-2.288,0.39l-0.39,1.638l-2.34,0l-0.182-3.848s3.146-1.04,5.642-1.04c3.952,0,5.46,1.378,5.46,5.148l0,6.422l1.95,0.468l0,2.08z M139.43756,54.698l-1.482,0c-2.028,0-2.834,0.52-2.834,1.69c0,0.988,0.546,1.56,1.534,1.56c1.378,0,2.782-1.508,2.782-1.508l0-1.742z M150.26682,42.27c0-1.482,1.066-2.34,2.236-2.34c1.352,0,2.184,0.702,2.184,2.34c0,1.534-1.118,2.366-2.184,2.366c-1.404,0-2.236-0.832-2.236-2.366z M154.63482,57.87l1.82,0.65l0,2.08l-7.8,0l0-2.08l2.08-0.65l0-8.45l-2.08-0.65l0-2.08l5.98-0.13l0,11.31z M165.56808,57.87l2.34,0.65l0,2.08l-8.346,0l0-2.08l2.08-0.65l0-14.612l-2.08-0.52l0-2.08l6.006-0.208l0,17.42z M176.73534,42.27l2.73,0c3.38,0,5.72,1.43,5.72,4.498c0,2.262-1.066,3.64-3.12,4.29c2.444,0.702,3.718,2.158,3.718,4.16c0,3.822-2.548,5.382-6.76,5.382l-8.268,0l0-2.21l1.95-0.78l0-12.22l-1.95-0.78l0-2.21z M176.73534,49.758l1.508,0c1.898,0,2.912-0.806,2.912-2.418c0-1.352-0.962-1.95-2.21-1.95l-2.21,0l0,4.368z M176.73534,57.48l2.158,0c1.82,0,2.782-0.832,2.782-2.262c0-1.898-1.092-2.73-3.432-2.73l-1.508,0l0,4.992z M196.6906,46.3c4.212,0,6.552,2.548,6.552,7.02c0,4.68-2.73,7.54-6.942,7.54c-4.238,0-6.63-2.21-6.63-7.15c0-4.68,2.782-7.41,7.02-7.41z M196.5606,49.42c-1.898,0-2.86,1.04-2.86,4.16c0,2.86,0.832,4.16,2.73,4.16c1.872,0,2.782-1.17,2.782-4.29c0-2.652-0.78-4.03-2.652-4.03z M220.70186,48.77l-1.612,0.338l-2.99,4.472l2.938,4.42l1.924,0.52l0,2.08l-7.072,0l0-2.08l0.806-0.286l-1.378-2.288l-2.808,4.654l-4.42,0l0-2.08l1.95-0.52l2.86-4.29l-3.146-4.602l-1.404-0.338l0-2.08l6.734-0.13l0,2.21l-0.78,0.156l1.352,2.288l2.704-4.524l4.342-0.13l0,2.21z"/><path fill="#356385" d=""/></svg>
